<?xml version="1.0" encoding="utf-8"?>
<!-- Generator: Adobe Illustrator 21.0.0, SVG Export Plug-In . SVG Version: 6.00 Build 0)  -->
<svg version="1.1" id="Layer_1" xmlns="http://www.w3.org/2000/svg" xmlns:xlink="http://www.w3.org/1999/xlink" x="0px" y="0px"
	 viewBox="0 0 800 800" style="enable-background:new 0 0 800 800;" xml:space="preserve">
<style type="text/css">
	.st0{fill:#3795E2;}
</style>
<path class="st0" d="M225,100c-13.1,0-26.5,4.6-35.9,14.1S175,136.9,175,150v500c0,13.1,4.6,26.5,14.1,35.9S211.9,700,225,700h350
	c13.1,0,26.5-4.6,35.9-14.1S625,663.1,625,650V285.2c0-13.1-6.9-27.2-14.8-35.2L475,114.8c-7.9-7.9-22.1-14.8-35.2-14.8H225z
	 M225,150h214.8L575,285.2V650H225V150z M275,375v225h250V375H275z M325,425h150v125H325V425z"/>
</svg>
