<?xml version="1.0" encoding="utf-8"?>
<!-- Generator: Adobe Illustrator 21.0.0, SVG Export Plug-In . SVG Version: 6.00 Build 0)  -->
<svg version="1.1"
	 id="svg822" inkscape:version="0.92.4 (f8dce91, 2019-08-02)" sodipodi:docname="streaming.svg" xmlns:cc="http://creativecommons.org/ns#" xmlns:dc="http://purl.org/dc/elements/1.1/" xmlns:inkscape="http://www.inkscape.org/namespaces/inkscape" xmlns:rdf="http://www.w3.org/1999/02/22-rdf-syntax-ns#" xmlns:sodipodi="http://sodipodi.sourceforge.net/DTD/sodipodi-0.dtd" xmlns:svg="http://www.w3.org/2000/svg"
	 xmlns="http://www.w3.org/2000/svg" xmlns:xlink="http://www.w3.org/1999/xlink" x="0px" y="0px" viewBox="0 0 30 30"
	 style="enable-background:new 0 0 30 30;" xml:space="preserve">
<style type="text/css">
	.st0{fill:#3795E2;}
</style>
<sodipodi:namedview  bordercolor="#666666" borderopacity="1.0" id="base" inkscape:current-layer="layer1" inkscape:cx="15" inkscape:cy="15" inkscape:document-units="px" inkscape:guide-bbox="true" inkscape:pageopacity="0.0" inkscape:pageshadow="2" inkscape:window-height="713" inkscape:window-maximized="1" inkscape:window-width="1366" inkscape:window-x="0" inkscape:window-y="0" inkscape:zoom="17.833333" pagecolor="#ffffff" showgrid="true" showguides="false" units="px">
	<sodipodi:guide  id="guide1575" inkscape:locked="false" orientation="1,0" position="21.126168,22.794393"></sodipodi:guide>
	<sodipodi:guide  id="guide1635" inkscape:locked="false" orientation="1,0" position="22.682243,23.285047"></sodipodi:guide>
	<sodipodi:guide  id="guide1639" inkscape:locked="false" orientation="0,1" position="22.682243,7.6455921"></sodipodi:guide>
	<sodipodi:guide  id="guide1242" inkscape:locked="false" orientation="1,0" position="18.859863,18.859863"></sodipodi:guide>
	<inkscape:grid  id="grid1103" type="xygrid"></inkscape:grid>
</sodipodi:namedview>
<path id="rect858" class="st0" d="M6.6,6.5C4.4,8.7,3,11.7,3,15s1.3,6.3,3.5,8.5L8,22.1C6.2,20.3,5,17.8,5,15S6.2,9.7,8,7.9L6.6,6.5
	z M23.5,6.5l-1.4,1.4C23.9,9.7,25,12.2,25,15s-1.1,5.3-2.9,7.1l1.4,1.4c2.2-2.2,3.5-5.2,3.5-8.5S25.7,8.7,23.5,6.5z M8.7,8.6
	C7.1,10.3,6,12.5,6,15s1,4.7,2.6,6.4l1.4-1.4c-1.3-1.3-2-3-2-5s0.8-3.7,2-5L8.7,8.6z M21.4,8.6L20,10c1.3,1.3,2,3,2,5s-0.8,3.7-2,5
	l1.4,1.4C23,19.7,24,17.5,24,15S23,10.3,21.4,8.6z M10.8,10.8C9.7,11.8,9,13.3,9,15s0.7,3.2,1.8,4.2l1.4-1.4
	C11.5,17.1,11,16.1,11,15s0.4-2.1,1.2-2.8L10.8,10.8z M19.2,10.8l-1.4,1.4c0.7,0.7,1.2,1.7,1.2,2.8s-0.4,2.1-1.2,2.8l1.4,1.4
	c1.1-1.1,1.8-2.6,1.8-4.2S20.3,11.8,19.2,10.8z M15,13c-1.1,0-2,0.9-2,2s0.9,2,2,2s2-0.9,2-2S16.1,13,15,13z"/>
</svg>
